<svg width="201" height="53" viewBox="0 0 201 53" fill="none" xmlns="http://www.w3.org/2000/svg">
<mask id="mask0_4560_3241" style="mask-type:luminance" maskUnits="userSpaceOnUse" x="39" y="0" width="69" height="53">
<path d="M85.0324 0.853514C84.6215 0.853514 84.2665 1.00241 83.9678 1.30015C83.6689 1.59795 83.5195 1.95152 83.5195 2.36094V9.00491C83.5195 9.41433 83.6689 9.76791 83.9678 10.0657C84.2665 10.3635 84.6215 10.5123 85.0324 10.5123H96.1273V43.3412H85.0324C84.6215 43.3412 84.2665 43.4901 83.9678 43.7878C83.6689 44.0856 83.5195 44.4392 83.5195 44.8487V51.4926C83.5195 51.902 83.6689 52.2556 83.9678 52.5533C84.2665 52.8511 84.6215 53 85.0324 53H105.597C106.008 53 106.363 52.8511 106.662 52.5533C106.961 52.2556 107.11 51.902 107.11 51.4926V2.36094C107.11 1.95152 106.961 1.59795 106.662 1.30015C106.363 1.00241 106.008 0.853514 105.597 0.853514H85.0324ZM40.8333 0.853514C40.4223 0.853514 40.0675 1.00241 39.7686 1.30015C39.4697 1.59795 39.3203 1.95152 39.3203 2.36094V51.4926C39.3203 51.902 39.4697 52.2556 39.7686 52.5533C40.0675 52.8511 40.4223 53 40.8333 53H61.3981C61.809 53 62.1639 52.8511 62.4627 52.5533C62.7616 52.2556 62.911 51.902 62.911 51.4926V44.8487C62.911 44.4392 62.7616 44.0856 62.4627 43.7878C62.1639 43.4901 61.809 43.3412 61.3981 43.3412H50.3032V10.5123H61.3981C61.809 10.5123 62.1639 10.3635 62.4627 10.0657C62.7616 9.76791 62.911 9.41433 62.911 9.00491V2.36094C62.911 1.95152 62.7616 1.59795 62.4627 1.30015C62.1639 1.00241 61.809 0.853514 61.3981 0.853514H40.8333Z" fill="white"/>
</mask>
<g mask="url(#mask0_4560_3241)">
<path d="M38.9766 0.504312H107.47V53.3489H38.9766V0.504312Z" fill="white"/>
</g>
<mask id="mask1_4560_3241" style="mask-type:luminance" maskUnits="userSpaceOnUse" x="54" y="18" width="38" height="18">
<path d="M86.1756 18.2357C85.9962 18.2357 85.8412 18.3002 85.7107 18.4293C85.5803 18.5585 85.515 18.7118 85.515 18.8894V26.0074L80.1822 18.7199C79.9376 18.3971 79.6196 18.2357 79.2281 18.2357H75.2652C75.0857 18.2357 74.9308 18.3002 74.8003 18.4293C74.6699 18.5585 74.6046 18.7118 74.6046 18.8894V34.5296C74.6046 34.7071 74.6699 34.8604 74.8003 34.9896C74.9308 35.1187 75.0857 35.1833 75.2652 35.1833H79.8152C79.9946 35.1833 80.1495 35.1187 80.28 34.9896C80.4105 34.8604 80.4757 34.7071 80.4757 34.5296V27.9442L85.8086 34.6749C86.0695 35.0138 86.3957 35.1833 86.7871 35.1833H90.7256C90.905 35.1833 91.0599 35.1187 91.1905 34.9896C91.3209 34.8604 91.3862 34.7071 91.3862 34.5296V18.8894C91.3862 18.7118 91.3209 18.5585 91.1905 18.4293C91.0599 18.3002 90.905 18.2357 90.7256 18.2357H86.1756ZM55.309 18.2357C55.1295 18.2357 54.9746 18.3002 54.8441 18.4293C54.7136 18.5585 54.6484 18.7118 54.6484 18.8894V22.5452C54.6484 22.7228 54.7136 22.8762 54.8441 23.0052C54.9746 23.1343 55.1295 23.1989 55.309 23.1989H59.7856V30.22H55.309C55.1295 30.22 54.9746 30.2847 54.8441 30.4137C54.7136 30.5429 54.6484 30.6962 54.6484 30.8738V34.5296C54.6484 34.7071 54.7136 34.8604 54.8441 34.9896C54.9746 35.1187 55.1295 35.1833 55.309 35.1833H70.8183C70.9977 35.1833 71.1527 35.1187 71.2831 34.9896C71.4136 34.8604 71.4788 34.7071 71.4788 34.5296V30.8738C71.4788 30.6962 71.4136 30.5429 71.2831 30.4137C71.1527 30.2847 70.9977 30.22 70.8183 30.22H66.3906V23.1989H70.8183C70.9977 23.1989 71.1527 23.1343 71.2831 23.0052C71.4136 22.8762 71.4788 22.7228 71.4788 22.5452V18.8894C71.4788 18.7118 71.4136 18.5585 71.2831 18.4293C71.1527 18.3002 70.9977 18.2357 70.8183 18.2357H55.309Z" fill="white"/>
</mask>
<g mask="url(#mask1_4560_3241)">
<path d="M54.293 17.8868H91.7339V35.5325H54.293V17.8868Z" fill="white"/>
</g>
<mask id="mask2_4560_3241" style="mask-type:luminance" maskUnits="userSpaceOnUse" x="112" y="15" width="89" height="26">
<path d="M176.581 15.5135L171.658 21.1089V21.4305H174.349V30.692C174.349 32.9108 175.072 34.8402 177.796 34.8402C179.273 34.8402 180.553 34.5509 182.031 33.8756V31.7531C180.521 32.3963 179.043 32.5892 178.288 32.5892C177.238 32.5892 176.811 32.0747 176.811 30.3704V21.4305H181.965V19.4046H176.811V15.5135H176.581ZM183.967 26.9938C183.967 32.2999 187.841 35.1618 192.239 35.1618C196.638 35.1618 200.511 32.2999 200.511 26.9938C200.511 21.6878 196.638 18.8257 192.239 18.8257C187.841 18.8257 183.967 21.6878 183.967 26.9938ZM186.396 26.9938C186.396 22.8777 189.285 20.8838 192.239 20.8838C195.193 20.8838 198.082 22.8777 198.082 26.9938C198.082 31.1099 195.193 33.1037 192.239 33.1037C189.285 33.1037 186.396 31.0778 186.396 26.9938ZM157.674 21.2054V19.4046H155.245V40.8538H157.674V33.9077C158.954 34.7759 160.53 35.1618 162.499 35.1618C165.815 35.1618 169.984 32.3319 169.984 26.8008C169.984 21.3341 166.34 18.8257 163.057 18.8257C160.431 18.8257 158.363 20.3693 157.674 21.2054ZM157.674 31.721V23.4564C158.823 22.0736 160.563 21.1089 162.368 21.1089C164.633 21.1089 167.489 22.3631 167.489 26.8008C167.489 31.7853 164.206 33.1037 162.171 33.1037C160.464 33.1037 158.757 32.5892 157.674 31.721ZM112.047 26.9938C112.047 32.5892 116.314 35.1618 120.581 35.1618C122.157 35.1618 123.47 34.9689 124.98 34.4865V32.139C123.47 32.75 121.829 33.0073 120.581 33.0073C117.463 33.0073 114.574 30.7563 114.574 26.9938C114.574 23.2314 117.43 21.0125 120.581 21.0125C121.796 21.0125 123.47 21.2697 124.98 21.8807V19.5332C123.47 19.0187 122.124 18.8257 120.581 18.8257C116.314 18.8257 112.047 21.4305 112.047 26.9938ZM130.692 23.2635V19.4046H128.263V34.583H130.692V28.3444C130.692 24.4854 132.497 21.5913 136.764 21.5913V18.8901C133.81 19.2759 132.07 20.0156 130.692 23.2635ZM150.354 19.4046C148.614 23.4243 146.94 27.444 145.2 31.4637L140.112 19.4046H137.454L143.92 34.3901C142.968 36.5125 142.049 38.6992 141.097 40.8538H143.526L152.783 19.4046H150.354Z" fill="white"/>
</mask>
<g mask="url(#mask2_4560_3241)">
<path d="M111.695 15.1645H200.863V41.2029H111.695V15.1645Z" fill="white"/>
</g>
<mask id="mask3_4560_3241" style="mask-type:luminance" maskUnits="userSpaceOnUse" x="0" y="11" width="34" height="25">
<path d="M0.515625 11.8967V34.1616C2.46318 35.3076 4.80678 35.897 6.88646 35.897C11.3097 35.897 15.4688 33.1465 15.4688 27.5804C15.4688 22.8327 12.4319 19.2637 7.44756 19.2637C5.69803 19.2637 4.34469 19.7221 2.95831 20.7044V11.0454L0.515625 11.8967ZM2.95831 32.8847V23.0946C4.11362 21.9814 5.76406 21.523 7.67863 21.523C9.85733 21.523 12.9601 23.0946 12.9601 27.6458C12.9601 32.7537 9.19708 33.7032 6.78738 33.7032C5.69803 33.7032 3.98156 33.3757 2.95831 32.8847ZM17.6804 27.5804C17.6804 33.2448 21.6086 35.897 26.0649 35.897C28.6066 35.897 30.5212 35.3403 32.1056 34.6528V32.2298C30.3561 33.2776 27.9795 33.736 26.263 33.736C22.896 33.736 20.2222 31.8369 20.2222 27.6458H33.426C33.426 22.6035 30.2571 19.2637 26.0649 19.2637C21.6086 19.2637 17.6804 21.9159 17.6804 27.5804ZM25.9329 21.3265C28.9037 21.3265 30.7192 23.2583 30.8843 25.8122H20.3213C20.8493 22.5707 23.6882 21.3265 25.9329 21.3265Z" fill="white"/>
</mask>
<g mask="url(#mask3_4560_3241)">
<path d="M0.164062 10.6964H33.7777V36.2461H0.164062V10.6964Z" fill="white"/>
</g>
</svg>
