<svg width="70" height="16" viewBox="0 0 70 16" fill="none" xmlns="http://www.w3.org/2000/svg">
<g id="$CLAIR">
<path d="M4.69701 15.9209V0.373291H6.33211V15.9209H4.69701ZM7.2006 5.65705C7.16011 5.21168 6.97993 4.8655 6.66007 4.61852C6.34426 4.36749 5.89281 4.24198 5.30573 4.24198C4.91704 4.24198 4.59313 4.29259 4.334 4.39381C4.07488 4.49503 3.88053 4.63472 3.75097 4.81287C3.6214 4.98697 3.5546 5.18739 3.55055 5.41412C3.54245 5.60037 3.57889 5.76435 3.65987 5.90606C3.74489 6.04777 3.86636 6.17328 4.02427 6.2826C4.18622 6.38787 4.38056 6.481 4.6073 6.56197C4.83404 6.64295 5.08911 6.71381 5.37254 6.77454L6.44143 7.01747C7.05686 7.15108 7.59941 7.32923 8.06908 7.55192C8.54279 7.77461 8.93958 8.03981 9.25944 8.34752C9.58335 8.65523 9.8283 9.00951 9.99431 9.41035C10.1603 9.81118 10.2453 10.2606 10.2494 10.7586C10.2453 11.5441 10.0469 12.2182 9.6542 12.781C9.26146 13.3438 8.69665 13.775 7.95976 14.0746C7.22691 14.3742 6.34224 14.5241 5.30573 14.5241C4.26517 14.5241 3.35823 14.3682 2.5849 14.0564C1.81156 13.7446 1.21031 13.2709 0.781129 12.6353C0.35195 11.9996 0.131287 11.1959 0.119141 10.2242H2.99788C3.02217 10.625 3.12947 10.959 3.31976 11.2263C3.51006 11.4935 3.77121 11.6959 4.10322 11.8336C4.43927 11.9712 4.82796 12.0401 5.26929 12.0401C5.67417 12.0401 6.01833 11.9854 6.30175 11.8761C6.58922 11.7668 6.80988 11.6149 6.96374 11.4206C7.11759 11.2263 7.19655 11.0036 7.2006 10.7525C7.19655 10.5177 7.12367 10.3173 6.98196 10.1513C6.84025 9.98123 6.62161 9.83547 6.32604 9.71401C6.03452 9.5885 5.66203 9.4731 5.20856 9.36783L3.90887 9.06417C2.83188 8.81719 1.98364 8.41838 1.36416 7.86773C0.744689 7.31304 0.436976 6.564 0.441025 5.62061C0.436976 4.85133 0.643468 4.17719 1.0605 3.59821C1.47753 3.01922 2.0545 2.56777 2.79139 2.24386C3.52828 1.91996 4.36842 1.758 5.3118 1.758C6.27543 1.758 7.11152 1.92198 7.82007 2.24994C8.53267 2.57385 9.08534 3.02934 9.47808 3.61643C9.87082 4.20351 10.0712 4.88372 10.0793 5.65705H7.2006Z" fill="black"/>
<path d="M19.7475 14.5714C18.3679 14.5714 17.1992 14.349 16.2415 13.9044C15.2952 13.4597 14.5769 12.787 14.0866 11.8863C13.6077 10.9856 13.3683 9.85682 13.3683 8.50003C13.3683 6.50475 13.9213 4.99404 15.0272 3.9679C16.1332 2.94176 17.7009 2.42869 19.7304 2.42869C20.882 2.42869 21.9024 2.59971 22.7917 2.94176C23.681 3.28381 24.3765 3.79118 24.8782 4.46387C25.3913 5.13656 25.6478 5.98028 25.6478 6.99502H23.5784C23.5784 6.35653 23.4188 5.83206 23.0996 5.4216C22.7803 4.99974 22.33 4.6862 21.7485 4.48097C21.167 4.26434 20.4886 4.15603 19.7133 4.15603C18.8354 4.15603 18.0772 4.30995 17.4387 4.61779C16.8116 4.92563 16.327 5.3874 15.985 6.00308C15.6429 6.61877 15.4719 7.38268 15.4719 8.2948V8.70526C15.4719 9.62879 15.6429 10.3984 15.985 11.0141C16.327 11.6184 16.8173 12.0744 17.4558 12.3823C18.0943 12.6787 18.8582 12.8269 19.7475 12.8269C20.5342 12.8269 21.2183 12.7243 21.7998 12.5191C22.3927 12.3139 22.8487 12.006 23.168 11.5956C23.4872 11.1737 23.6468 10.6492 23.6468 10.0221H25.6478C25.6478 11.0255 25.3913 11.8692 24.8782 12.5533C24.3765 13.226 23.681 13.7334 22.7917 14.0754C21.9138 14.4061 20.8991 14.5714 19.7475 14.5714Z" fill="black"/>
<path d="M28.2117 14.3661V2.63391H30.264V12.5533H36.8997V14.3661H28.2117Z" fill="black"/>
<path d="M37.618 14.3661L42.8855 2.63391H45.3654L50.65 14.3661H48.3925L47.2467 11.7495H40.8846L39.7387 14.3661H37.618ZM41.6371 10.0221H46.4941L45.0575 6.70428C45.0005 6.59027 44.9264 6.43064 44.8352 6.22542C44.7554 6.02019 44.6699 5.80356 44.5787 5.57553C44.4875 5.33609 44.402 5.11376 44.3221 4.90853C44.2423 4.6919 44.1796 4.52658 44.134 4.41256H44.0143C43.9231 4.64059 43.8148 4.90283 43.6894 5.19927C43.5753 5.49571 43.4613 5.78075 43.3473 6.05439C43.2333 6.32803 43.1421 6.55036 43.0737 6.72138L41.6371 10.0221Z" fill="black"/>
<path d="M52.5124 14.3661V2.63391H54.5647V14.3661H52.5124Z" fill="black"/>
<path d="M57.7066 14.3661V2.63391H65.3172C66.1381 2.63391 66.8165 2.78784 67.3524 3.09568C67.8882 3.40352 68.2873 3.82538 68.5495 4.36126C68.8232 4.89713 68.96 5.50711 68.96 6.19121C68.96 6.94372 68.7776 7.61641 68.4127 8.20929C68.0593 8.80217 67.5348 9.24684 66.8393 9.54328L69.3191 14.3661H67.0274L64.8041 9.90243H59.7589V14.3661H57.7066ZM59.7589 8.17509H64.958C65.5623 8.17509 66.0298 7.99836 66.3604 7.64491C66.7025 7.28006 66.8735 6.8012 66.8735 6.20831C66.8735 5.82066 66.7994 5.49001 66.6512 5.21637C66.5029 4.94274 66.2863 4.73751 66.0013 4.60069C65.7162 4.45247 65.3685 4.37836 64.958 4.37836H59.7589V8.17509Z" fill="black"/>
</g>
</svg>
