<svg width="81" height="25" viewBox="0 0 81 25" fill="none" xmlns="http://www.w3.org/2000/svg">
<path d="M5.16297 24.3682V21.5644C4.30315 21.471 3.434 21.2373 2.55549 20.8635C1.69568 20.4897 0.948014 20.013 0.3125 19.4336L1.77044 17.2467C2.42465 17.77 3.0882 18.1906 3.7611 18.5084C4.45269 18.8261 5.17231 18.985 5.91998 18.985C6.83586 18.985 7.51811 18.77 7.96671 18.3401C8.4153 17.9102 8.6396 17.3214 8.6396 16.5738C8.6396 15.957 8.45269 15.4429 8.07886 15.0317C7.72371 14.6018 7.25643 14.228 6.67699 13.9102C6.09755 13.5925 5.48072 13.2747 4.82652 12.957C4.17231 12.6205 3.55549 12.2467 2.97605 11.8355C2.39661 11.4242 1.91998 10.9289 1.54614 10.3495C1.191 9.75134 1.01343 9.01303 1.01343 8.13452C1.01343 6.82611 1.38727 5.742 2.13493 4.88218C2.90129 4.00368 3.91063 3.45228 5.16297 3.22798V0.368164H7.40596V3.1719C8.30315 3.28405 9.06951 3.54573 9.70502 3.95695C10.3592 4.34947 10.948 4.81676 11.4714 5.35882L9.81717 7.23732C9.29381 6.75134 8.78913 6.38686 8.30315 6.14387C7.81717 5.88218 7.23773 5.75134 6.56484 5.75134C5.81717 5.75134 5.21904 5.9476 4.77044 6.34013C4.34054 6.71396 4.12558 7.26536 4.12558 7.99433C4.12558 8.55508 4.30315 9.02237 4.65829 9.3962C5.03213 9.77003 5.50876 10.1065 6.0882 10.4055C6.66764 10.7046 7.28446 11.013 7.93867 11.3308C8.59287 11.6298 9.2097 11.9943 9.78913 12.4242C10.3686 12.8355 10.8359 13.3588 11.191 13.9943C11.5648 14.6112 11.7518 15.3962 11.7518 16.3495C11.7518 17.6766 11.3686 18.7981 10.6022 19.714C9.85456 20.6298 8.78913 21.2186 7.40596 21.4803V24.3682H5.16297Z" fill="white"/>
<path d="M22.5096 21.6205C20.9769 21.6205 19.5843 21.256 18.332 20.527C17.0797 19.7981 16.0797 18.7327 15.332 17.3308C14.603 15.9102 14.2385 14.1906 14.2385 12.1719C14.2385 10.1719 14.6124 8.46162 15.36 7.04106C16.1264 5.60181 17.1451 4.50835 18.4161 3.76069C19.6871 2.99433 21.089 2.61116 22.6217 2.61116C23.7806 2.61116 24.8086 2.8448 25.7058 3.31209C26.603 3.77938 27.3413 4.32144 27.9208 4.93826L26.1825 7.04106C25.7152 6.55508 25.1918 6.1719 24.6124 5.89153C24.0516 5.59246 23.4161 5.44293 22.7058 5.44293C21.7152 5.44293 20.8273 5.71396 20.0423 6.25602C19.2759 6.77938 18.6684 7.53639 18.2198 8.52704C17.7899 9.5177 17.575 10.7046 17.575 12.0878C17.575 14.1813 18.0329 15.8261 18.9488 17.0224C19.8647 18.1999 21.089 18.7887 22.6217 18.7887C23.4441 18.7887 24.1731 18.6205 24.8086 18.2841C25.4441 17.9289 26.0236 17.471 26.5469 16.9102L28.2853 18.957C27.5376 19.8168 26.6778 20.4803 25.7058 20.9476C24.7526 21.3962 23.6871 21.6205 22.5096 21.6205Z" fill="white"/>
<path d="M30.7854 21.2841V2.9476H34.0377V18.5364H41.6639V21.2841H30.7854Z" fill="white"/>
<path d="M48.0551 11.527L47.4103 13.77H52.0925L51.4476 11.527C51.1486 10.5551 50.8589 9.55508 50.5785 8.52704C50.3168 7.49901 50.0551 6.48031 49.7934 5.47097H49.6813C49.4383 6.49901 49.1766 7.52704 48.8962 8.55508C48.6346 9.56443 48.3542 10.5551 48.0551 11.527ZM41.9149 21.2841L47.8869 2.9476H51.7L57.6719 21.2841H54.2514L52.8215 16.3214H46.6533L45.2233 21.2841H41.9149Z" fill="white"/>
<path d="M59.3715 21.2841V2.9476H62.6238V21.2841H59.3715Z" fill="white"/>
<path d="M66.7236 21.2841V2.9476H72.9199C74.1909 2.9476 75.3311 3.11583 76.3405 3.45228C77.3685 3.78873 78.1722 4.35882 78.7517 5.16256C79.3498 5.9476 79.6489 7.02237 79.6489 8.38686C79.6489 9.78873 79.3124 10.9196 78.6395 11.7794C77.9853 12.6392 77.1068 13.256 76.004 13.6298L80.3778 21.2841H76.733L72.7797 14.1065H69.976V21.2841H66.7236ZM69.976 11.527H72.5835C73.8358 11.527 74.7891 11.2654 75.4433 10.742C76.1162 10.1999 76.4526 9.4149 76.4526 8.38686C76.4526 7.34013 76.1162 6.61116 75.4433 6.19994C74.7891 5.77003 73.8358 5.55508 72.5835 5.55508H69.976V11.527Z" fill="white"/>
</svg>
