<svg width="161" height="37" viewBox="0 0 161 37" fill="none" xmlns="http://www.w3.org/2000/svg">
<path d="M10.6508 36.3653V0.192383H14.455V36.3653H10.6508ZM16.4756 12.4855C16.3814 11.4493 15.9622 10.6439 15.2181 10.0693C14.4833 9.48525 13.433 9.19323 12.0671 9.19323C11.1627 9.19323 10.4091 9.31098 9.80625 9.54648C9.20337 9.78198 8.75121 10.107 8.44977 10.5215C8.14833 10.9265 7.9929 11.3928 7.98348 11.9203C7.96464 12.3536 8.04942 12.7352 8.23782 13.0649C8.43564 13.3946 8.71824 13.6866 9.08562 13.9409C9.46242 14.1858 9.91459 14.4025 10.4421 14.5909C10.9696 14.7793 11.5631 14.9442 12.2225 15.0855L14.7094 15.6507C16.1412 15.9615 17.4035 16.376 18.4962 16.8941C19.5984 17.4122 20.5215 18.0292 21.2657 18.7451C22.0193 19.4611 22.5892 20.2853 22.9755 21.2179C23.3617 22.1505 23.5595 23.1961 23.5689 24.3548C23.5595 26.1823 23.0979 27.7507 22.1842 29.0601C21.2704 30.3695 19.9563 31.3727 18.2419 32.0698C16.5369 32.7669 14.4786 33.1154 12.0671 33.1154C9.64611 33.1154 7.53603 32.7527 5.7368 32.0274C3.93757 31.302 2.5387 30.1999 1.54018 28.721C0.541652 27.242 0.0282601 25.3721 0 23.1113H6.69764C6.75416 24.0439 7.00379 24.8211 7.44654 25.4428C7.88928 26.0645 8.49687 26.5355 9.26931 26.8558C10.0512 27.1761 10.9555 27.3362 11.9823 27.3362C12.9243 27.3362 13.725 27.209 14.3844 26.9547C15.0532 26.7004 15.5666 26.3471 15.9246 25.8949C16.2825 25.4428 16.4662 24.9247 16.4756 24.3406C16.4662 23.7943 16.2967 23.328 15.967 22.9418C15.6373 22.5461 15.1286 22.207 14.4409 21.9244C13.7627 21.6324 12.896 21.3639 11.841 21.119L8.81715 20.4125C6.31142 19.8379 4.33793 18.91 2.89666 17.6289C1.45539 16.3383 0.739473 14.5956 0.748893 12.4007C0.739473 10.6109 1.21989 9.04251 2.19016 7.69544C3.16042 6.34838 4.50278 5.29804 6.21722 4.54444C7.93167 3.79084 9.88632 3.41404 12.0812 3.41404C14.3232 3.41404 16.2684 3.79555 17.9169 4.55857C19.5748 5.31217 20.8607 6.37193 21.7744 7.73783C22.6881 9.10374 23.1544 10.6863 23.1733 12.4855H16.4756Z" fill="#EFF5F5"/>
<path d="M45.6671 33.2255C42.4574 33.2255 39.7384 32.7082 37.5101 31.6737C35.3084 30.6391 33.6372 29.0741 32.4966 26.9784C31.3824 24.8828 30.8254 22.2567 30.8254 19.1C30.8254 14.4578 32.1119 10.943 34.685 8.55556C37.2581 6.16815 40.9056 4.97445 45.6273 4.97445C48.3065 4.97445 50.6807 5.37235 52.7498 6.16815C54.8189 6.96396 56.437 8.1444 57.6042 9.70948C58.7979 11.2746 59.3947 13.2375 59.3947 15.5984H54.5801C54.5801 14.1129 54.2088 12.8927 53.466 11.9377C52.7233 10.9562 51.6754 10.2268 50.3226 9.74927C48.9697 9.24526 47.3914 8.99326 45.5875 8.99326C43.545 8.99326 41.7809 9.35137 40.2954 10.0676C38.8365 10.7838 37.7091 11.8582 36.9133 13.2906C36.1175 14.723 35.7196 16.5003 35.7196 18.6225V19.5775C35.7196 21.7261 36.1175 23.5167 36.9133 24.9491C37.7091 26.3551 38.8497 27.4161 40.3352 28.1324C41.8207 28.8221 43.598 29.1669 45.6671 29.1669C47.4975 29.1669 49.0891 28.9282 50.4419 28.4507C51.8213 27.9732 52.8824 27.257 53.6252 26.302C54.3679 25.3205 54.7393 24.1003 54.7393 22.6413H59.3947C59.3947 24.9757 58.7979 26.9386 57.6042 28.5303C56.437 30.0953 54.8189 31.2758 52.7498 32.0716C50.7072 32.8409 48.3463 33.2255 45.6671 33.2255Z" fill="#EFF5F5"/>
<path d="M65.3599 32.748V5.45193H70.1347V28.5303H85.5733V32.748H65.3599Z" fill="#EFF5F5"/>
<path d="M87.2445 32.748L99.4999 5.45193H105.269L117.565 32.748H112.312L109.646 26.6601H94.8444L92.1785 32.748H87.2445ZM96.5952 22.6413H107.896L104.553 14.922C104.421 14.6567 104.248 14.2854 104.036 13.8079C103.85 13.3304 103.651 12.8264 103.439 12.2958C103.227 11.7388 103.028 11.2215 102.842 10.744C102.657 10.24 102.511 9.85538 102.405 9.59011H102.126C101.914 10.1206 101.662 10.7308 101.37 11.4205C101.105 12.1102 100.839 12.7733 100.574 13.41C100.309 14.0466 100.097 14.5639 99.9376 14.9618L96.5952 22.6413Z" fill="#EFF5F5"/>
<path d="M121.898 32.748V5.45193H126.673V32.748H121.898Z" fill="#EFF5F5"/>
<path d="M133.982 32.748V5.45193H151.689C153.599 5.45193 155.177 5.81004 156.424 6.52626C157.671 7.24249 158.599 8.22398 159.209 9.47074C159.846 10.7175 160.164 12.1367 160.164 13.7283C160.164 15.4791 159.74 17.0441 158.891 18.4235C158.069 19.8029 156.849 20.8375 155.23 21.5272L161 32.748H155.668L150.495 22.3628H138.757V32.748H133.982ZM138.757 18.344H150.853C152.259 18.344 153.347 17.9328 154.116 17.1105C154.912 16.2616 155.31 15.1475 155.31 13.7681C155.31 12.8662 155.138 12.0969 154.793 11.4603C154.448 10.8236 153.944 10.3461 153.281 10.0278C152.618 9.68295 151.808 9.51053 150.853 9.51053H138.757V18.344Z" fill="#EFF5F5"/>
</svg>
